<?xml version="1.0" encoding="UTF-8"?>
<svg xmlns="http://www.w3.org/2000/svg" version="1.1" width="300" height="300" viewBox="0 0 300 300"><rect x="0" y="0" width="300" height="300" fill="#ffffff"/><g transform="scale(8.571)"><g transform="translate(1.000,1.000)"><path fill-rule="evenodd" d="M8 0L8 1L9 1L9 2L8 2L8 5L9 5L9 4L11 4L11 5L10 5L10 10L8 10L8 9L9 9L9 8L8 8L8 9L7 9L7 8L6 8L6 9L7 9L7 10L5 10L5 9L4 9L4 8L0 8L0 10L1 10L1 11L2 11L2 10L1 10L1 9L4 9L4 10L3 10L3 11L5 11L5 12L1 12L1 14L5 14L5 15L3 15L3 16L4 16L4 17L5 17L5 19L4 19L4 18L3 18L3 17L2 17L2 16L1 16L1 17L0 17L0 19L1 19L1 20L2 20L2 18L3 18L3 19L4 19L4 20L6 20L6 21L5 21L5 22L6 22L6 23L7 23L7 22L8 22L8 21L7 21L7 20L9 20L9 24L8 24L8 26L9 26L9 25L10 25L10 27L9 27L9 29L8 29L8 33L9 33L9 31L10 31L10 32L11 32L11 33L14 33L14 32L13 32L13 30L14 30L14 29L12 29L12 28L14 28L14 27L15 27L15 28L16 28L16 29L15 29L15 31L16 31L16 30L17 30L17 28L16 28L16 27L15 27L15 26L16 26L16 25L19 25L19 26L18 26L18 27L19 27L19 29L18 29L18 31L17 31L17 33L18 33L18 32L19 32L19 33L20 33L20 32L19 32L19 29L20 29L20 31L22 31L22 32L21 32L21 33L22 33L22 32L23 32L23 33L24 33L24 32L25 32L25 33L26 33L26 32L28 32L28 33L29 33L29 32L28 32L28 31L27 31L27 30L28 30L28 29L29 29L29 28L30 28L30 29L32 29L32 30L33 30L33 27L30 27L30 26L31 26L31 25L30 25L30 26L29 26L29 22L31 22L31 24L32 24L32 25L33 25L33 24L32 24L32 23L33 23L33 21L31 21L31 20L29 20L29 19L30 19L30 18L31 18L31 19L32 19L32 20L33 20L33 19L32 19L32 18L33 18L33 16L31 16L31 14L32 14L32 13L30 13L30 14L29 14L29 15L30 15L30 16L28 16L28 14L27 14L27 15L26 15L26 14L25 14L25 13L26 13L26 12L25 12L25 11L27 11L27 13L29 13L29 12L28 12L28 11L31 11L31 12L32 12L32 11L33 11L33 8L32 8L32 9L31 9L31 8L28 8L28 9L31 9L31 10L28 10L28 11L27 11L27 9L26 9L26 8L25 8L25 6L24 6L24 8L23 8L23 6L22 6L22 8L21 8L21 5L22 5L22 4L23 4L23 3L24 3L24 5L25 5L25 3L24 3L24 2L25 2L25 1L24 1L24 0L23 0L23 1L21 1L21 0L17 0L17 1L16 1L16 0L12 0L12 1L11 1L11 0L10 0L10 1L9 1L9 0ZM14 1L14 2L11 2L11 4L12 4L12 3L13 3L13 5L12 5L12 6L11 6L11 8L12 8L12 6L13 6L13 8L14 8L14 9L15 9L15 7L16 7L16 6L15 6L15 5L16 5L16 4L17 4L17 3L18 3L18 4L19 4L19 2L20 2L20 5L21 5L21 4L22 4L22 3L23 3L23 2L21 2L21 1L19 1L19 2L17 2L17 3L16 3L16 1ZM14 3L14 5L13 5L13 6L14 6L14 7L15 7L15 6L14 6L14 5L15 5L15 4L16 4L16 3ZM18 5L18 6L17 6L17 7L18 7L18 6L19 6L19 8L18 8L18 9L19 9L19 8L20 8L20 9L21 9L21 10L23 10L23 9L21 9L21 8L20 8L20 6L19 6L19 5ZM8 6L8 7L9 7L9 6ZM16 8L16 10L14 10L14 11L11 11L11 13L10 13L10 14L8 14L8 13L6 13L6 12L7 12L7 11L8 11L8 10L7 10L7 11L6 11L6 12L5 12L5 13L6 13L6 14L7 14L7 15L5 15L5 17L6 17L6 18L7 18L7 19L6 19L6 20L7 20L7 19L8 19L8 18L9 18L9 19L10 19L10 18L11 18L11 19L12 19L12 20L10 20L10 21L11 21L11 22L10 22L10 23L14 23L14 22L15 22L15 24L12 24L12 26L11 26L11 28L12 28L12 26L13 26L13 27L14 27L14 26L15 26L15 24L18 24L18 22L19 22L19 23L20 23L20 21L21 21L21 25L20 25L20 24L19 24L19 25L20 25L20 27L22 27L22 28L23 28L23 27L22 27L22 24L23 24L23 25L24 25L24 23L23 23L23 21L24 21L24 22L25 22L25 24L28 24L28 22L29 22L29 20L26 20L26 19L25 19L25 20L24 20L24 18L22 18L22 19L21 19L21 18L20 18L20 15L19 15L19 14L18 14L18 15L17 15L17 16L16 16L16 15L15 15L15 14L16 14L16 13L20 13L20 14L22 14L22 12L23 12L23 15L25 15L25 14L24 14L24 13L25 13L25 12L24 12L24 11L25 11L25 10L26 10L26 9L25 9L25 8L24 8L24 9L25 9L25 10L24 10L24 11L21 11L21 13L20 13L20 12L18 12L18 10L17 10L17 8ZM11 9L11 10L12 10L12 9ZM16 10L16 12L14 12L14 14L13 14L13 12L12 12L12 13L11 13L11 16L12 16L12 17L13 17L13 16L12 16L12 14L13 14L13 15L14 15L14 18L13 18L13 21L15 21L15 19L16 19L16 18L17 18L17 20L18 20L18 21L20 21L20 20L19 20L19 15L18 15L18 16L17 16L17 17L16 17L16 16L15 16L15 15L14 15L14 14L15 14L15 13L16 13L16 12L17 12L17 10ZM19 10L19 11L20 11L20 10ZM31 10L31 11L32 11L32 10ZM7 15L7 16L6 16L6 17L7 17L7 18L8 18L8 17L9 17L9 16L10 16L10 15ZM15 17L15 18L16 18L16 17ZM17 17L17 18L18 18L18 17ZM31 17L31 18L32 18L32 17ZM27 18L27 19L29 19L29 18ZM21 20L21 21L22 21L22 20ZM0 21L0 22L2 22L2 23L1 23L1 24L0 24L0 25L1 25L1 24L2 24L2 25L3 25L3 24L5 24L5 23L4 23L4 21ZM6 21L6 22L7 22L7 21ZM26 21L26 22L27 22L27 21ZM2 23L2 24L3 24L3 23ZM6 24L6 25L7 25L7 24ZM10 24L10 25L11 25L11 24ZM13 25L13 26L14 26L14 25ZM25 25L25 28L28 28L28 25ZM26 26L26 27L27 27L27 26ZM9 29L9 30L10 30L10 31L11 31L11 32L12 32L12 31L11 31L11 30L12 30L12 29ZM25 29L25 30L27 30L27 29ZM23 30L23 32L24 32L24 30ZM30 30L30 31L31 31L31 30ZM25 31L25 32L26 32L26 31ZM32 31L32 32L33 32L33 31ZM30 32L30 33L31 33L31 32ZM0 0L0 7L7 7L7 0ZM1 1L1 6L6 6L6 1ZM2 2L2 5L5 5L5 2ZM33 0L26 0L26 7L33 7ZM32 1L27 1L27 6L32 6ZM31 2L28 2L28 5L31 5ZM0 33L7 33L7 26L0 26ZM1 32L6 32L6 27L1 27ZM2 31L5 31L5 28L2 28Z" fill="#000000"/></g></g></svg>
